# xmcd
#
# Track frame offsets:
#	150
#	17092
#	33087
#	49223
#	69891
#	92537
#	109502
#	130435
#	153126
#	170508
#	192060
#	203169
#	216267
#
# Disc length: 3090 seconds
#
# Revision: 0
# Processed by: cddbd v1.5.2PL0 Copyright (c) Steve Scherf et al.
# Submitted via: audiograbber 1.83.01
#
DISCID=a40c100d
DTITLE=Dirty Mac Blues Band - Victory Bar
DYEAR=2009
DGENRE=Blues
TTITLE0=Natural Needs
TTITLE1=Lost Another Man
TTITLE2=Don't Say Nothing At All
TTITLE3=Gospel Stomp
TTITLE4=BBQ
TTITLE5=Mississippi Twang
TTITLE6=My Baby Left Me
TTITLE7=Black Cat
TTITLE8=Booty Call Man
TTITLE9=Where Did You Go
TTITLE10=Love That Guy
TTITLE11=Can't Get Enough Of Loving You
TTITLE12=Gypsy Train
EXTD=
EXTT0=
EXTT1=
EXTT2=
EXTT3=
EXTT4=
EXTT5=
EXTT6=
EXTT7=
EXTT8=
EXTT9=
EXTT10=
EXTT11=
EXTT12=
PLAYORDER=
